<svg width="14" height="14" viewBox="0 0 14 14" fill="none" xmlns="http://www.w3.org/2000/svg">
<path fill-rule="evenodd" clip-rule="evenodd" d="M7.13931 1.63802C7.04893 1.60865 6.95158 1.60865 6.8612 1.63802C6.85126 1.64124 6.80919 1.65602 6.69763 1.75073C6.58004 1.85056 6.4354 1.99446 6.20476 2.22509L2.1805 6.24936C1.89835 6.53151 1.83814 6.59786 1.79683 6.66527C1.75159 6.73908 1.71826 6.81956 1.69805 6.90374C1.67959 6.98061 1.67526 7.07011 1.67526 7.46912V11.2C1.67526 11.5262 1.67578 11.7302 1.68834 11.8839C1.70026 12.0298 1.71956 12.07 1.7243 12.0793C1.76745 12.164 1.83629 12.2328 1.92096 12.276C1.93027 12.2807 1.97047 12.3 2.11632 12.3119C2.27006 12.3245 2.47409 12.325 2.80026 12.325H4.82526V9.925C4.82526 8.72378 5.79904 7.75 7.00026 7.75C8.20147 7.75 9.17526 8.72378 9.17526 9.925V12.325H11.2003C11.5264 12.325 11.7305 12.3245 11.8842 12.3119C12.03 12.3 12.0702 12.2807 12.0796 12.276C12.1642 12.2328 12.2331 12.164 12.2762 12.0793C12.281 12.07 12.3003 12.0298 12.3122 11.8839C12.3247 11.7302 12.3253 11.5262 12.3253 11.2V7.46912C12.3253 7.07011 12.3209 6.98061 12.3025 6.90374C12.2823 6.81956 12.2489 6.73908 12.2037 6.66527C12.1624 6.59786 12.1022 6.53151 11.82 6.24936L7.79575 2.22509C7.56512 1.99446 7.42047 1.85056 7.30289 1.75073C7.19133 1.65602 7.14925 1.64124 7.13931 1.63802ZM6.44403 0.35409C6.80554 0.236625 7.19497 0.236625 7.55649 0.35409C7.80342 0.434323 8.00116 0.572655 8.17658 0.721573C8.34131 0.86142 8.52506 1.04519 8.73268 1.25283L12.7746 5.29477C12.7888 5.30895 12.8028 5.32298 12.8167 5.33686C13.035 5.55477 13.2192 5.73866 13.3547 5.95989C13.474 6.1545 13.5619 6.36666 13.6152 6.58858C13.6757 6.84088 13.6755 7.10115 13.6753 7.40954C13.6753 7.4292 13.6753 7.44906 13.6753 7.46912V11.225C13.6753 11.5186 13.6753 11.7785 13.6577 11.9939C13.6389 12.2232 13.5969 12.4608 13.4791 12.6922C13.3065 13.0309 13.0311 13.3062 12.6924 13.4788C12.4611 13.5967 12.2235 13.6387 11.9941 13.6574C11.7788 13.675 11.5189 13.675 11.2253 13.675H8.64175C8.19082 13.675 7.82526 13.3095 7.82526 12.8585V9.925C7.82526 9.46936 7.45589 9.1 7.00026 9.1C6.54462 9.1 6.17526 9.46936 6.17526 9.925V12.8585C6.17526 13.3095 5.80969 13.675 5.35876 13.675H2.77525C2.48163 13.675 2.22176 13.675 2.00639 13.6574C1.77705 13.6387 1.53942 13.5967 1.30807 13.4788C0.969381 13.3062 0.694017 13.0309 0.521445 12.6922C0.40357 12.4608 0.361563 12.2232 0.342825 11.9939C0.325229 11.7785 0.325242 11.5186 0.325256 11.225L0.325256 7.46912C0.325256 7.44906 0.325241 7.42921 0.325225 7.40955C0.324983 7.10115 0.324779 6.84089 0.385352 6.58859C0.438632 6.36666 0.526511 6.1545 0.645763 5.9599C0.781337 5.73866 0.965516 5.55477 1.18376 5.33687C1.19767 5.32298 1.21172 5.30895 1.2259 5.29477L5.26785 1.25282C5.47546 1.04518 5.65921 0.861418 5.82394 0.721573C5.99935 0.572656 6.19709 0.434323 6.44403 0.35409Z" fill="#99A2AD"/>
</svg>
