<svg width="14" height="14" viewBox="0 0 14 14" fill="none" xmlns="http://www.w3.org/2000/svg">
<path d="M7.00003 0.25C7.37281 0.25 7.675 0.552195 7.675 0.924971L7.675 6.325L13.075 6.32504C13.4478 6.32504 13.75 6.62723 13.75 7C13.75 7.37277 13.4478 7.67496 13.075 7.67496L7.675 7.67425L7.675 13.0751C7.675 13.4479 7.37281 13.7501 7.00003 13.7501C6.62725 13.7501 6.32506 13.4479 6.32506 13.0751L6.325 7.67425L0.924963 7.67496C0.552191 7.67496 0.25 7.37277 0.25 7C0.25 6.62723 0.552191 6.32504 0.924963 6.32504L6.325 6.325L6.32506 0.924971C6.32506 0.552195 6.62725 0.25 7.00003 0.25Z" fill="#99A2AD"/>
</svg>
