<svg width="18" height="16" viewBox="0 0 12 16" fill="none" xmlns="http://www.w3.org/2000/svg">
<path fill-rule="evenodd" clip-rule="evenodd" d="M6.35478 0.499981C6.57951 0.4997 6.79458 0.499431 7.00419 0.549752C7.18786 0.593846 7.36344 0.666575 7.52449 0.765268C7.70829 0.8779 7.86018 1.03017 8.01888 1.18927L11.3107 4.48115C11.4698 4.63985 11.6221 4.79174 11.7347 4.97554C11.8334 5.13659 11.9062 5.31217 11.9503 5.49583C12.0006 5.70544 12.0003 5.92051 12 6.14522L12 10.6539C12 11.3645 12 11.9388 11.962 12.4041C11.9228 12.8836 11.8399 13.3065 11.6403 13.6982C11.3239 14.3192 10.8191 14.824 10.1982 15.1404C9.80639 15.34 9.38353 15.4229 8.90406 15.4621C8.43875 15.5001 7.86443 15.5001 7.15381 15.5001H4.84619C4.13557 15.5001 3.56125 15.5001 3.09594 15.4621C2.61647 15.4229 2.19361 15.34 1.80183 15.1404C1.1809 14.824 0.676062 14.3192 0.359679 13.6982C0.16006 13.3065 0.07718 12.8836 0.038006 12.4041C-1.17989e-05 11.9388 -6.61412e-06 11.3645 1.80814e-07 10.6539V5.34626C-6.61413e-06 4.63563 -1.17933e-05 4.06132 0.038006 3.596C0.07718 3.11653 0.16006 2.69367 0.359679 2.30189C0.676062 1.68096 1.1809 1.17612 1.80183 0.859741C2.19361 0.660121 2.61647 0.577241 3.09594 0.538067C3.56126 0.50005 4.13557 0.500055 4.8462 0.500062C5.34905 0.500065 5.85192 0.499999 6.35478 0.499981ZM4.875 1.85003L6 1.85003V3.4516C5.99999 3.84899 5.99998 4.18739 6.02268 4.46521C6.04653 4.75708 6.09875 5.04102 6.23706 5.31247C6.44559 5.72173 6.77832 6.05446 7.18757 6.26298C7.45902 6.40129 7.74297 6.45352 8.03484 6.47737C8.31266 6.50007 8.65104 6.50006 9.04843 6.50005L10.65 6.50004V9.87504C10.65 10.125 10.65 10.3751 10.65 10.6251C10.65 11.3713 10.6495 11.8903 10.6165 12.2942C10.5841 12.6902 10.524 12.9156 10.4375 13.0853C10.2505 13.4523 9.9522 13.7506 9.58528 13.9375C9.41554 14.024 9.19011 14.0842 8.79413 14.1165C8.39027 14.1495 7.87121 14.1501 7.125 14.1501H4.875C4.12879 14.1501 3.60973 14.1495 3.20587 14.1165C2.80989 14.0842 2.58446 14.024 2.41472 13.9375C2.0478 13.7506 1.74949 13.4523 1.56254 13.0853C1.47605 12.9156 1.41588 12.6902 1.38352 12.2942C1.35053 11.8903 1.35 11.3713 1.35 10.6251V5.37506C1.35 4.62885 1.35053 4.10979 1.38352 3.70593C1.41588 3.30995 1.47605 3.08452 1.56254 2.91478C1.74949 2.54786 2.0478 2.24955 2.41472 2.0626C2.58446 1.97611 2.80989 1.91594 3.20587 1.88358C3.60974 1.85059 4.12879 1.85003 4.875 1.85003ZM7.35 2.42963L10.0704 5.15004H9.075C8.64382 5.15004 8.36104 5.14952 8.14477 5.13185C7.93639 5.11482 7.84988 5.0853 7.80046 5.06012C7.64523 4.98103 7.51902 4.85482 7.43992 4.69959C7.41474 4.65017 7.38522 4.56366 7.3682 4.35527C7.35053 4.13901 7.35 3.85622 7.35 3.42505V2.42963Z" fill="#99A2AD"/>
</svg>
